HIERARCHY
ROOT Hips
{
	OFFSET 0.000000 0.000000 0.000000
	CHANNELS 6 Xposition Yposition Zposition Zrotation Yrotation Xrotation 
	JOINT LowerBack
	{
		OFFSET 0.000000 0.000000 0.000000
		CHANNELS 3 Zrotation Yrotation Xrotation
		JOINT Spine
		{
			OFFSET 0.028270 2.035590 -0.193380
			CHANNELS 3 Zrotation Yrotation Xrotation
			JOINT Spine1
			{
				OFFSET 0.056720 2.048850 -0.042750
				CHANNELS 3 Zrotation Yrotation Xrotation
				JOINT Neck
				{
					OFFSET 0.000000 0.000000 0.000000
					CHANNELS 3 Zrotation Yrotation Xrotation
					JOINT Neck1
					{
						OFFSET -0.054170 1.746240 0.172020
						CHANNELS 3 Zrotation Yrotation Xrotation
						JOINT Head
						{
							OFFSET 0.104070 1.761360 -0.123970
							CHANNELS 3 Zrotation Yrotation Xrotation
							End Site
							{
								OFFSET 0.000000 0.000000 0.000000
							}
						}
					}
				}
				JOINT LeftShoulder
				{
					OFFSET 0.000000 0.000000 0.000000
					CHANNELS 3 Zrotation Yrotation Xrotation
					JOINT LeftArm
					{
						OFFSET 3.362410 1.200890 -0.311210
						CHANNELS 3 Zrotation Yrotation Xrotation
						JOINT LeftForeArm
						{
							OFFSET 4.983000 -0.000000 -0.000000
							CHANNELS 3 Zrotation Yrotation Xrotation
							JOINT LeftHand
							{
								OFFSET 3.483560 -0.000000 -0.000000
								CHANNELS 3 Zrotation Yrotation Xrotation
								JOINT LeftFingerBase
								{
									OFFSET 0.000000 0.000000 0.000000
									CHANNELS 3 Zrotation Yrotation Xrotation
									JOINT LeftHandIndex1
									{
										OFFSET 0.715260 -0.000000 -0.000000
										CHANNELS 3 Zrotation Yrotation Xrotation
										End Site
										{
											OFFSET 0.000000 0.000000 0.000000
										}
									}
								}
								JOINT LThumb
								{
									OFFSET 0.000000 0.000000 0.000000
									CHANNELS 3 Zrotation Yrotation Xrotation
									End Site
									{
										OFFSET 0.000000 0.000000 0.000000
									}
								}
							}
						}
					}
				}
				JOINT RightShoulder
				{
					OFFSET 0.000000 0.000000 0.000000
					CHANNELS 3 Zrotation Yrotation Xrotation
					JOINT RightArm
					{
						OFFSET -3.136600 1.374050 -0.404650
						CHANNELS 3 Zrotation Yrotation Xrotation
						JOINT RightForeArm
						{
							OFFSET -5.241900 -0.000000 -0.000000
							CHANNELS 3 Zrotation Yrotation Xrotation
							JOINT RightHand
							{
								OFFSET -3.444170 -0.000000 -0.000000
								CHANNELS 3 Zrotation Yrotation Xrotation
								JOINT RightFingerBase
								{
									OFFSET 0.000000 0.000000 0.000000
									CHANNELS 3 Zrotation Yrotation Xrotation
									JOINT RightHandIndex1
									{
										OFFSET -0.622530 -0.000000 -0.000000
										CHANNELS 3 Zrotation Yrotation Xrotation
										End Site
										{
											OFFSET 0.000000 0.000000 0.000000
										}
									}
								}
								JOINT RThumb
								{
									OFFSET 0.000000 0.000000 0.000000
									CHANNELS 3 Zrotation Yrotation Xrotation
									End Site
									{
										OFFSET 0.000000 0.000000 0.000000
									}
								}
							}
						}
					}
				}
			}
		}
	}
}
}
MOTION
Frames: 18
Frame Time: 0.008333
0.319167 16.705303 -3.133949 -173.351177 50.203332 -155.633121 11.543230 -2.531468 1.659626 1.207176 -3.276296 -2.181736 -7.996915 -3.193818 1.642213 9.052493 -7.103142 -4.630884 -5.019365 -0.394396 0.670325 0.000000 0.000000 0.000000 4.250567 6.299840 0.355369 -42.577296 -19.523617 4.286532 -179.953340 -88.801118 -179.970099 -4.100919 1.440460 -0.037502 0.026251 0.385343 -0.000000 0.000000 0.000000 0.000000 0.000000 0.000000 0.000000 20.395376 -7.256378 1.168279 70.158556 -7.747780 -15.209443 4.415851 13.210718 0.009723 8.118446 4.834870 0.343143 0.059766 -0.029874 -0.000000 0.000000 0.000000 0.000000 0.000000 0.000000 0.000000 
0.441884 16.732969 -3.180709 -173.664259 49.011548 -155.925484 11.496464 -2.517283 1.781809 1.194809 -3.250694 -2.193728 -8.008489 -3.175452 1.538538 9.324984 -6.569949 -4.476821 -5.055488 -0.396501 0.708936 0.000000 0.000000 0.000000 4.209629 6.097159 0.422533 -43.924939 -18.861452 5.159264 179.993965 -89.789653 -179.972036 -4.011170 1.397665 -0.035295 0.016780 0.376755 -0.000000 0.000000 0.000000 0.000000 0.000000 0.000000 0.000000 20.770021 -6.749770 1.195985 69.811772 -6.694585 -15.332877 4.362404 12.680650 0.009923 7.700777 4.956112 0.333645 0.059116 -0.032445 -0.000000 0.000000 0.000000 0.000000 0.000000 0.000000 0.000000 
0.562826 16.764093 -3.225845 -174.093670 47.792918 -156.307029 11.360331 -2.517433 1.897330 1.167460 -3.234691 -2.206228 -8.010370 -3.167456 1.435465 9.581153 -6.030179 -4.320691 -5.079450 -0.397745 0.748457 0.000000 0.000000 0.000000 4.133236 5.877874 0.501204 -45.214020 -18.191901 6.060820 -0.071901 -89.079143 0.026753 -3.929576 1.350740 -0.033091 0.007654 0.367236 0.000000 0.000000 0.000000 0.000000 0.000000 0.000000 0.000000 21.089746 -6.237203 1.226076 69.479261 -5.605568 -15.472827 4.307509 12.170084 0.010123 7.294481 5.075472 0.323646 0.058440 -0.035299 -0.000000 0.000000 0.000000 0.000000 0.000000 0.000000 0.000000 
0.681740 16.798031 -3.270510 -174.616406 46.546536 -156.754495 11.153388 -2.528524 2.002317 1.129448 -3.226152 -2.219305 -7.998948 -3.167653 1.335661 9.805260 -5.491874 -4.164004 -5.089593 -0.398054 0.788473 0.000000 0.000000 0.000000 4.012829 5.649995 0.590255 -46.448910 -17.528719 6.987727 -0.151834 -87.791670 0.025569 -3.857062 1.305895 -0.031195 -0.001150 0.356696 0.000000 0.000000 0.000000 0.000000 0.000000 0.000000 0.000000 21.331494 -5.724183 1.256443 69.163297 -4.498737 -15.604715 4.253771 11.710052 0.010322 6.914821 5.188709 0.313649 0.057800 -0.038376 -0.000000 0.000000 0.000000 0.000000 0.000000 0.000000 0.000000 
0.798378 16.834087 -3.315869 -175.206020 45.273141 -157.241248 10.897852 -2.546092 2.091681 1.085854 -3.222099 -2.233736 -7.969882 -3.173104 1.240473 9.981354 -4.975574 -4.008897 -5.084383 -0.397388 0.828537 0.000000 0.000000 0.000000 3.845903 5.401113 0.685595 -47.641757 -16.853292 7.922459 -0.246203 -86.352698 0.024408 -3.795828 1.271870 -0.029706 -0.009431 0.344977 -0.000000 0.000000 0.000000 0.000000 0.000000 0.000000 0.000000 21.471288 -5.230217 1.286741 68.863338 -3.375834 -15.699959 4.204251 11.315812 0.010534 6.576096 5.291345 0.304252 0.057295 -0.041652 -0.000000 0.000000 0.000000 0.000000 0.000000 0.000000 0.000000 
0.912438 16.871639 -3.362795 -175.834947 43.977807 -157.744666 10.615018 -2.564680 2.165841 1.040853 -3.218225 -2.248587 -7.921619 -3.179242 1.153114 10.101570 -4.483445 -3.857738 -5.063369 -0.395727 0.867912 0.000000 0.000000 0.000000 3.629213 5.154086 0.785538 -48.802348 -16.200832 8.865750 -0.356474 -84.740564 0.023252 -3.744246 1.253733 -0.029025 -0.017360 0.332143 -0.000000 0.000000 0.000000 0.000000 0.000000 0.000000 0.000000 21.498941 -4.753742 1.313444 68.576063 -2.262418 -15.725027 4.161594 11.029755 0.010763 6.292851 5.379391 0.295957 0.056969 -0.045016 -0.000000 0.000000 0.000000 0.000000 0.000000 0.000000 0.000000 
1.023641 16.910059 -3.412043 -176.471772 42.666937 -158.239040 10.326950 -2.578409 2.223594 0.998639 -3.209920 -2.263728 -7.853195 -3.181257 1.075238 10.160207 -4.029164 -3.713613 -5.026753 -0.393111 0.905790 0.000000 0.000000 0.000000 3.365220 4.910577 0.886038 -49.942783 -15.572225 9.803643 -0.482481 -82.955500 0.022084 -3.701363 1.256123 -0.029053 -0.024884 0.318238 -0.000000 0.000000 0.000000 0.000000 0.000000 0.000000 0.000000 21.407978 -4.306445 1.335304 68.293968 -1.165902 -15.647356 4.128398 10.873830 0.011023 6.076250 5.449318 0.289562 0.056888 -0.048396 -0.000000 0.000000 0.000000 0.000000 0.000000 0.000000 0.000000 
1.131591 16.948791 -3.464232 -177.084776 41.348509 -158.700854 10.053367 -2.581546 2.265840 0.962484 -3.192507 -2.278435 -7.765886 -3.174151 1.009032 10.157814 -3.617267 -3.579651 -4.975645 -0.389608 0.941250 0.000000 0.000000 0.000000 3.057087 4.686263 0.984494 -51.071014 -14.987592 10.729054 -0.624100 -80.991239 0.020884 -3.664382 1.280011 -0.029892 -0.032105 0.303430 -0.000000 0.000000 0.000000 0.000000 0.000000 0.000000 0.000000 21.202056 -3.890010 1.350297 68.006158 -0.100968 -15.437761 4.106477 10.876643 0.011322 5.934815 5.498532 0.285469 0.057071 -0.051685 -0.000000 0.000000 0.000000 0.000000 0.000000 0.000000 0.000000 
1.236236 16.987392 -3.519482 -177.654212 40.032232 -159.115632 9.805523 -2.569642 2.292742 0.933887 -3.162190 -2.292753 -7.661450 -3.153950 0.954399 10.098791 -3.265922 -3.459073 -4.912284 -0.385386 0.973451 0.000000 0.000000 0.000000 2.714685 4.467830 1.075982 -52.192260 -14.423116 11.614407 -0.778459 -78.870107 0.019642 -3.631115 1.324041 -0.031342 -0.038838 0.287865 -0.000000 0.000000 0.000000 0.000000 0.000000 0.000000 0.000000 20.894021 -3.523337 1.359456 67.695996 0.941524 -15.065991 4.096709 11.038281 0.011672 5.868370 5.526688 0.283777 0.057548 -0.054828 -0.000000 0.000000 0.000000 0.000000 0.000000 0.000000 0.000000 
1.337605 17.025470 -3.577649 -178.163156 38.729063 -159.473806 9.591348 -2.538926 2.307587 0.913226 -3.115547 -2.305351 -7.544417 -3.116851 0.913909 9.994700 -2.965630 -3.354901 -4.839607 -0.380589 1.001341 0.000000 0.000000 0.000000 2.343631 4.287476 1.160790 -53.303506 -13.919802 12.463165 -0.945037 -76.583170 0.018346 -3.595763 1.380864 -0.033202 -0.045387 0.271894 -0.000000 0.000000 0.000000 0.000000 0.000000 0.000000 0.000000 20.507278 -3.193688 1.360623 67.346627 1.939426 -14.521941 4.098480 11.387717 0.012062 5.878239 5.533028 0.284786 0.058237 -0.057684 -0.000000 0.000000 0.000000 0.000000 0.000000 0.000000 0.000000 
1.435826 17.062728 -3.638389 -178.604980 37.448849 -159.773164 9.409510 -2.487825 2.313222 0.899142 -3.050880 -2.315930 -7.419040 -3.061052 0.886770 9.858576 -2.722600 -3.269228 -4.761282 -0.375447 1.024284 0.000000 0.000000 0.000000 1.956360 4.138176 1.236752 -54.400182 -13.460966 13.253611 -1.120177 -74.156288 0.017004 -3.555033 1.442722 -0.035073 -0.051658 0.255756 -0.000000 0.000000 0.000000 0.000000 0.000000 0.000000 0.000000 20.070094 -2.908695 1.355748 66.936205 2.900024 -13.796363 4.110118 11.917015 0.012487 5.954477 5.520908 0.287995 0.059095 -0.060197 -0.000000 0.000000 0.000000 0.000000 0.000000 0.000000 0.000000 
1.531231 17.098918 -3.701169 -178.980031 36.200245 -160.016511 9.252966 -2.416324 2.312942 0.889078 -2.967730 -2.323706 -7.290557 -2.985951 0.873764 9.706284 -2.529634 -3.204051 -4.681103 -0.370168 1.041574 0.000000 0.000000 0.000000 1.562509 4.033713 1.304598 -55.471412 -13.058180 13.980782 -1.301496 -71.602307 0.015628 -3.504150 1.498999 -0.036652 -0.057780 0.239740 0.000000 0.000000 0.000000 0.000000 0.000000 0.000000 0.000000 19.614717 -2.661382 1.345582 66.444635 3.820725 -12.908051 4.128800 12.621636 0.012929 6.088374 5.493090 0.293105 0.060011 -0.062305 -0.000000 0.000000 0.000000 0.000000 0.000000 0.000000 0.000000 
1.624222 17.133847 -3.765363 -179.295021 34.990598 -160.211691 9.109670 -2.326107 2.311162 0.879679 -2.866963 -2.328413 -7.163411 -2.892478 0.873043 9.552709 -2.383296 -3.159473 -4.602895 -0.364988 1.053102 0.000000 0.000000 0.000000 1.174508 3.966208 1.364502 -56.506574 -12.692425 14.626175 -1.485049 -68.950758 0.014246 -3.441426 1.540290 -0.037541 -0.063663 0.224036 0.000000 0.000000 0.000000 0.000000 0.000000 0.000000 0.000000 19.172549 -2.451008 1.333301 65.851904 4.711329 -11.880199 4.151222 13.476455 0.013370 6.264356 5.455773 0.299716 0.060911 -0.064011 0.000000 0.000000 0.000000 0.000000 0.000000 0.000000 0.000000 
1.715173 17.167355 -3.830430 -179.560101 33.825990 -160.368210 8.966615 -2.220385 2.312091 0.867643 -2.750908 -2.328876 -7.041782 -2.782907 0.886560 9.411338 -2.269639 -3.137579 -4.529518 -0.360034 1.058125 0.000000 0.000000 0.000000 0.798431 3.958015 1.419179 -57.491139 -12.385512 15.196289 -1.669692 -66.209246 0.012884 -3.363844 1.556695 -0.037537 -0.069492 0.208845 0.000000 0.000000 0.000000 0.000000 0.000000 0.000000 0.000000 18.770038 -2.264701 1.319796 65.144389 5.577419 -10.769768 4.174137 14.452938 0.013801 6.474100 5.415341 0.307626 0.061673 -0.065331 0.000000 0.000000 0.000000 0.000000 0.000000 0.000000 0.000000 
1.804523 17.199373 -3.895844 -179.786706 32.709621 -160.496258 8.811916 -2.102509 2.318580 0.850201 -2.622097 -2.326657 -6.927636 -2.660157 0.906867 9.290438 -2.186081 -3.132673 -4.464019 -0.355565 1.058317 0.000000 0.000000 0.000000 0.446449 3.962787 1.468162 -58.417382 -12.067058 15.648250 -1.849117 -63.431941 0.011587 -3.276955 1.546599 -0.036542 -0.074819 0.194151 0.000000 0.000000 0.000000 0.000000 0.000000 0.000000 0.000000 18.427261 -2.105799 1.311834 64.310762 6.438771 -9.614275 4.195127 15.501044 0.014213 6.699116 5.376385 0.316236 0.062303 -0.066373 0.000000 0.000000 0.000000 0.000000 0.000000 0.000000 0.000000 
1.892572 17.229739 -3.961270 -179.986310 31.644187 -160.605086 8.635284 -1.977498 2.334410 0.825315 -2.484772 -2.319336 -6.822965 -2.528261 0.941093 9.195905 -2.113971 -3.149940 -4.406882 -0.351502 1.052014 0.000000 0.000000 0.000000 0.116017 4.034190 1.515659 -59.272178 -11.802747 16.016556 -2.026137 -60.598035 0.010371 -3.177408 1.503344 -0.034551 -0.080088 0.180097 0.000000 0.000000 0.000000 0.000000 0.000000 0.000000 0.000000 18.153459 -1.955522 1.307487 63.353073 7.306392 -8.493031 4.212881 16.577934 0.014613 6.941489 5.347954 0.326146 0.062691 -0.067191 0.000000 0.000000 0.000000 0.000000 0.000000 0.000000 0.000000 
1.979487 17.258453 -4.026516 179.832657 30.629549 -160.701962 8.432085 -1.849127 2.360388 0.792330 -2.342344 -2.309031 -6.727043 -2.391030 0.981022 9.127002 -2.048248 -3.181269 -4.359250 -0.348004 1.041611 0.000000 0.000000 0.000000 -0.186312 4.121004 1.561270 -60.053427 -11.518948 16.256064 -2.195333 -57.756399 0.009268 -3.074625 1.433407 -0.031869 -0.084823 0.166560 0.000000 0.000000 0.000000 0.000000 0.000000 0.000000 0.000000 17.950248 -1.814805 1.313222 62.274203 8.197593 -7.442725 4.227265 17.629857 0.015005 7.188892 5.329929 0.336754 0.062911 -0.067904 0.000000 0.000000 0.000000 0.000000 0.000000 0.000000 0.000000 
2.065298 17.285391 -4.091615 179.666321 29.663967 -160.790564 8.201982 -1.721340 2.396872 0.751763 -2.198680 -2.295456 -6.638844 -2.252327 1.027810 9.079727 -1.978484 -3.225757 -4.320344 -0.345003 1.027327 0.000000 0.000000 0.000000 -0.463670 4.232608 1.606567 -60.757953 -11.224922 16.368956 -2.356998 -54.909092 0.008283 -2.972070 1.341764 -0.028693 -0.089084 0.153514 0.000000 0.000000 0.000000 0.000000 0.000000 0.000000 0.000000 17.809196 -1.675209 1.329751 61.086885 9.124949 -6.509197 4.239310 18.611687 0.015404 7.442737 5.324646 0.348462 0.062975 -0.068574 0.000000 0.000000 0.000000 0.000000 0.000000 0.000000 0.000000 
